<?xml version="1.0" encoding="UTF-8"?>
<svg width="536px" height="434px" viewBox="0 0 536 434" version="1.1" xmlns="http://www.w3.org/2000/svg" xmlns:xlink="http://www.w3.org/1999/xlink">
    <!-- Generator: Sketch 53.2 (72643) - https://sketchapp.com -->
    <title>logo-vert</title>
    <desc>Created with Sketch.</desc>
    <g id="Page-1" stroke="none" stroke-width="1" fill="none" fill-rule="evenodd">
        <g id="logo-vert" fill-rule="nonzero">
            <path d="M206.186809,254.646871 C179.568255,254.662883 155.563625,238.635471 145.374978,214.044027 C135.186332,189.452582 140.822093,161.14466 159.652264,142.330507 L160.116333,141.854836 L247.19893,54.7722387 L261.387848,68.9611565 L173.852783,156.542628 C162.29473,168.094463 157.777479,184.934947 162.002635,200.720431 C166.227791,216.505916 178.553453,228.838212 194.336662,233.071861 C210.119871,237.30551 226.962783,232.797321 238.520835,221.245485 L246.932091,212.83423 L261.121008,227.023148 L252.698151,235.446005 C240.364687,247.77689 223.627093,254.686523 206.186809,254.646871 Z" id="Path" fill="#E84E0F"></path>
            <path d="M326.079104,121.018126 L238.544039,33.4714595 C227.026845,21.7325353 210.094901,17.0790011 194.196006,21.2829548 C178.297111,25.4869084 165.87824,37.9013259 161.668584,53.7987118 C157.458928,69.6960977 162.106389,86.6297102 173.841181,98.1511132 L182.240835,106.562369 L168.051917,120.751286 L159.663865,112.351633 C143.0366,95.7285135 136.540702,71.4975773 142.623113,48.7863836 C148.705525,26.0751898 166.442182,8.33410946 189.151859,2.24603604 C211.861536,-3.84203737 236.094091,2.64781942 252.721355,19.27094 L253.173822,19.7350093 L340.268021,106.829208 L326.079104,121.018126 Z" id="Path" fill="#FBBA00"></path>
            <path d="M288.408281,200.165139 L274.219363,185.976221 L361.777632,98.417953 C379.357512,80.5059869 379.2231,51.7746293 361.4764,34.0279291 C343.7297,16.2812289 314.998342,16.146817 297.086376,33.7266976 L288.675121,42.137953 L274.486203,27.9490353 L282.897458,19.5377799 C308.597778,-6.16253993 350.26623,-6.16253993 375.966549,19.5377799 C401.666869,45.2380997 401.666869,86.906551 375.966549,112.606871 L288.408281,200.165139 Z" id="Path" fill="#79C6C0"></path>
            <path d="M329.432004,254.936914 C311.969584,254.984931 295.213465,248.046035 282.897458,235.666438 L195.33919,148.108169 L209.528108,133.919252 L297.086376,221.47752 C314.998342,239.057401 343.7297,238.922989 361.4764,221.176289 C379.2231,203.429588 379.357512,174.698231 361.777632,156.786265 L353.366376,148.375009 L367.555294,134.186092 L375.943346,142.574144 C394.779908,161.389198 400.42326,189.700645 390.240568,214.300139 C380.057876,238.899633 356.055721,254.939646 329.432004,254.936914 L329.432004,254.936914 Z" id="Path" fill="#36A9E1"></path>
            <path d="M0.627328627,380.838905 C0.211154765,380.425754 -0.0156000267,379.858867 0.000835120604,379.272672 L0.000835120604,317.28462 C-0.0153315147,316.701343 0.209269529,316.137123 0.621866608,315.724526 C1.03446369,315.311929 1.59868428,315.087328 2.18196066,315.103494 L7.20551045,315.103494 C7.79075928,315.080387 8.35906463,315.302754 8.77322049,315.71691 C9.18737635,316.131066 9.40974356,316.699371 9.38663599,317.28462 L9.38663599,379.295875 C9.40974356,379.881124 9.18737635,380.449429 8.77322049,380.863585 C8.35906463,381.277741 7.79075928,381.500108 7.20551045,381.477001 L2.18196066,381.477001 C1.59778454,381.488559 1.03493346,381.257538 0.627328627,380.838905 L0.627328627,380.838905 Z" id="Path" fill="#3C3C3B"></path>
            <path d="M26.4991901,380.838905 C26.0860793,380.424569 25.8634105,379.857393 25.8842983,379.272672 L25.8842983,317.377434 C25.8514223,316.763242 26.0739667,316.162792 26.4991901,315.718386 C26.9143018,315.306462 27.4809418,315.084003 28.0654239,315.103494 L32.4160732,315.103494 C33.3871588,315.042392 34.3007201,315.567689 34.7364195,316.437693 L66.2003156,364.770507 L66.2003156,317.377434 C66.1781141,316.764911 66.3991674,316.168484 66.8152074,315.718386 C67.2303192,315.306462 67.7969591,315.084003 68.3814412,315.103494 L72.92932,315.103494 C73.5617106,315.041427 74.1886561,315.265872 74.6379724,315.715188 C75.0872887,316.164504 75.3117338,316.79145 75.2496663,317.42384 L75.2496663,379.226265 C75.2596791,379.822878 75.0394664,380.400417 74.6347745,380.838905 C74.2327462,381.275252 73.6616374,381.516387 73.0685407,381.500204 L68.520662,381.500204 C67.5625082,381.520911 66.6707237,381.012594 66.2003156,380.177607 L34.8756403,332.308862 L34.8756403,379.295875 C34.890301,379.888684 34.6494207,380.45919 34.2143416,380.862109 C33.775853,381.266801 33.1983143,381.487013 32.6017009,381.477001 L28.0886273,381.477001 C27.4927198,381.496921 26.9158997,381.265351 26.4991901,380.838905 Z" id="Path" fill="#3C3C3B"></path>
            <path d="M106.864385,380.838905 C106.455938,380.421535 106.234087,379.856444 106.249493,379.272672 L106.249493,323.58436 L88.057978,323.58436 C87.4725296,323.60955 86.9036872,323.386226 86.4917442,322.969468 C86.0798202,322.554356 85.8573615,321.987716 85.8768524,321.403234 L85.8768524,317.42384 C85.8668397,316.827227 86.0870523,316.249688 86.4917442,315.8112 C86.8919505,315.372269 87.4643004,315.13061 88.057978,315.149901 L133.733995,315.149901 C134.365335,315.092135 134.989688,315.317977 135.437977,315.766266 C135.886266,316.214555 136.112107,316.838908 136.054342,317.470247 L136.054342,321.449641 C136.069117,322.044856 135.823362,322.616871 135.381441,323.015875 C134.947656,323.428094 134.366916,323.649527 133.7688,323.630767 L115.670099,323.630767 L115.670099,379.319079 C115.68476,379.911888 115.44388,380.482394 115.0088,380.885312 C114.570312,381.290004 113.992773,381.510217 113.39616,381.500204 L108.465424,381.500204 C107.862808,381.513047 107.282286,381.273266 106.864385,380.838905 Z" id="Path" fill="#3C3C3B"></path>
            <path d="M147.250013,380.838905 C146.836902,380.424569 146.614233,379.857393 146.635121,379.272672 L146.635121,317.377434 C146.602245,316.763242 146.824789,316.162792 147.250013,315.718386 C147.661556,315.308264 148.223907,315.085842 148.804645,315.103494 L187.948887,315.103494 C188.533369,315.084003 189.100009,315.306462 189.515121,315.718386 C189.940344,316.162792 190.162889,316.763242 190.130013,317.377434 L190.130013,320.985572 C190.150264,321.561533 189.946499,322.122926 189.561528,322.551806 C189.137784,322.979701 188.549948,323.20384 187.948887,323.166698 L155.707675,323.166698 L155.707675,343.922195 L185.872177,343.922195 C186.455949,343.90679 187.02104,344.12864 187.438411,344.537087 C187.861261,344.982975 188.083413,345.582367 188.053303,346.196135 L188.053303,349.676654 C188.072794,350.261136 187.850335,350.827776 187.438411,351.242888 C187.02104,351.651335 186.455949,351.873186 185.872177,351.85778 L155.707675,351.85778 L155.707675,373.378992 L188.691398,373.378992 C189.281724,373.341953 189.862358,373.54246 190.304039,373.935875 C190.699402,374.377054 190.903819,374.956932 190.872523,375.548516 L190.872523,379.295875 C190.895631,379.881124 190.673264,380.449429 190.259108,380.863585 C189.844952,381.277741 189.276647,381.500108 188.691398,381.477001 L148.781441,381.477001 C148.205286,381.482155 147.652048,381.251639 147.250013,380.838905 L147.250013,380.838905 Z" id="Path" fill="#3C3C3B"></path>
            <path d="M204.678584,380.838905 C204.270137,380.421535 204.048286,379.856444 204.063692,379.272672 L204.063692,317.377434 C204.041491,316.764911 204.262544,316.168484 204.678584,315.718386 C205.095954,315.309939 205.661046,315.088088 206.244818,315.103494 L229.367069,315.103494 C236.637487,315.103494 242.326203,316.808949 246.433216,320.219858 C250.540229,323.630767 252.593736,328.561503 252.593736,335.012066 C252.768527,339.246455 251.518534,343.417182 249.043606,346.857434 C246.514204,350.053397 242.997559,352.321674 239.042913,353.307996 L253.637891,378.518559 C253.81159,378.839846 253.90699,379.1976 253.916333,379.562715 C253.914918,380.072349 253.690179,380.55575 253.301441,380.885312 C252.937787,381.247713 252.445833,381.451999 251.932437,381.453797 L247.361355,381.453797 C246.564217,381.50186 245.775604,381.267741 245.133822,380.792498 C244.521485,380.262143 244.020645,379.615389 243.660402,378.889814 L229.958757,354.816221 L213.379883,354.816221 L213.379883,379.295875 C213.394543,379.888684 213.153663,380.45919 212.718584,380.862109 C212.280095,381.266801 211.702557,381.487013 211.105943,381.477001 L206.268021,381.477001 C205.67287,381.492667 205.097689,381.261755 204.678584,380.838905 L204.678584,380.838905 Z M229.04222,346.76462 C238.447357,346.76462 243.153793,342.816164 243.161528,334.919252 C243.169262,327.02234 238.462826,323.070017 229.04222,323.062282 L213.403086,323.062282 L213.403086,346.811027 L229.04222,346.76462 Z" id="Shape" fill="#3C3C3B"></path>
            <path d="M270.64603,375.571719 C266.260575,371.02384 263.909291,364.739569 263.592177,356.718905 C263.522567,355.017318 263.487762,352.23677 263.487762,348.37726 C263.487762,344.517751 263.522567,341.67146 263.592177,339.838386 C263.901557,331.879598 266.26831,325.610796 270.692437,321.031979 C275.116564,316.453162 281.532321,314.163754 289.93971,314.163754 C294.87671,314.01249 299.779191,315.034338 304.244645,317.145399 C307.88033,318.878298 310.964546,321.585018 313.154775,324.964966 C315.140463,328.059443 316.284182,331.618567 316.47287,335.290507 L316.47287,335.487737 C316.472277,335.984423 316.246056,336.453939 315.857978,336.763927 C315.480791,337.099428 314.99378,337.285152 314.488974,337.286005 L309.268194,337.286005 C308.003606,337.286005 307.214688,336.555096 306.947848,335.104879 C305.872754,330.371373 303.939132,327.037809 301.146982,325.104187 C298.354832,323.170565 294.626809,322.207621 289.962913,322.215356 C279.088223,322.215356 273.465251,328.248256 273.093995,340.314057 C273.024385,342.015644 272.98958,344.637636 272.98958,348.180031 C272.98958,351.722426 273.024385,354.429497 273.093995,356.301243 C273.465251,368.367044 279.088223,374.399944 289.962913,374.399944 C294.603606,374.399944 298.347098,373.437001 301.193389,371.511113 C304.039681,369.585226 305.950099,366.251662 306.924645,361.510421 C307.018605,360.863971 307.31988,360.265493 307.783173,359.804966 C308.214704,359.474691 308.748467,359.30635 309.291398,359.329295 L314.512177,359.329295 C315.047161,359.317083 315.567784,359.50302 315.973995,359.851373 C316.384639,360.183478 316.584219,360.711256 316.496073,361.231979 C316.322595,364.94285 315.178468,368.54325 313.177978,371.673537 C310.987749,375.053485 307.903534,377.760205 304.267848,379.493105 C299.803374,381.608163 294.900848,382.633995 289.962913,382.486351 C281.47818,382.43221 275.039219,380.127333 270.64603,375.571719 Z" id="Path" fill="#3C3C3B"></path>
            <path d="M329.791658,380.838905 C329.378547,380.424569 329.155878,379.857393 329.176766,379.272672 L329.176766,317.377434 C329.14389,316.763242 329.366434,316.162792 329.791658,315.718386 C330.206769,315.306462 330.773409,315.084003 331.357891,315.103494 L336.184212,315.103494 C336.79798,315.073384 337.397372,315.295536 337.843259,315.718386 C338.268483,316.162792 338.491027,316.763242 338.458151,317.377434 L338.458151,343.539338 L371.070619,343.539338 L371.070619,317.377434 C371.037743,316.763242 371.260287,316.162792 371.68551,315.718386 C372.100622,315.306462 372.667262,315.084003 373.251744,315.103494 L378.078065,315.103494 C378.691833,315.073384 379.291225,315.295536 379.737112,315.718386 C380.162336,316.162792 380.38488,316.763242 380.352004,317.377434 L380.352004,379.295875 C380.366665,379.888684 380.125784,380.45919 379.690705,380.862109 C379.252217,381.266801 378.674678,381.487013 378.078065,381.477001 L373.251744,381.477001 C372.666495,381.500108 372.09819,381.277741 371.684034,380.863585 C371.269878,380.449429 371.047511,379.881124 371.070619,379.295875 L371.070619,352.089814 L338.458151,352.089814 L338.458151,379.295875 C338.472812,379.888684 338.231932,380.45919 337.796852,380.862109 C337.358364,381.266801 336.780825,381.487013 336.184212,381.477001 L331.357891,381.477001 C330.769973,381.490393 330.202834,381.259336 329.791658,380.838905 L329.791658,380.838905 Z" id="Path" fill="#3C3C3B"></path>
            <path d="M391.060402,380.885312 C390.70071,380.538867 390.495785,380.062103 390.491917,379.562715 C390.473753,379.211386 390.508958,378.859334 390.596333,378.518559 L414.089839,317.191806 C414.492156,315.872082 415.753281,315.00566 417.129493,315.103494 L423.568454,315.103494 C424.944666,315.00566 426.205791,315.872082 426.608108,317.191806 L450.020402,378.518559 L450.20603,379.562715 C450.181544,380.596819 449.349051,381.429311 448.314948,381.453797 L443.430619,381.453797 C442.846468,381.489367 442.270451,381.302886 441.817978,380.931719 C441.479603,380.636768 441.220367,380.261872 441.063865,379.841156 L435.843086,366.383148 L404.762047,366.383148 L399.55287,379.841156 C399.390021,380.27377 399.108557,380.651735 398.740749,380.931719 C398.30033,381.291874 397.742942,381.47767 397.174515,381.453797 L392.383,381.453797 C391.882777,381.453951 391.404505,381.248378 391.060402,380.885312 L391.060402,380.885312 Z M433.151484,358.227131 L420.38958,324.582109 L407.627675,358.227131 L433.151484,358.227131 Z" id="Shape" fill="#3C3C3B"></path>
            <path d="M460.960835,380.838905 C460.552388,380.421535 460.330537,379.856444 460.345943,379.272672 L460.345943,317.28462 C460.322836,316.699371 460.545203,316.131066 460.959359,315.71691 C461.373515,315.302754 461.94182,315.080387 462.527069,315.103494 L467.550619,315.103494 C468.135868,315.080387 468.704173,315.302754 469.118329,315.71691 C469.532485,316.131066 469.754852,316.699371 469.731744,317.28462 L469.731744,379.295875 C469.754852,379.881124 469.532485,380.449429 469.118329,380.863585 C468.704173,381.277741 468.135868,381.500108 467.550619,381.477001 L462.527069,381.477001 C461.939917,381.486268 461.374345,381.25585 460.960835,380.838905 L460.960835,380.838905 Z" id="Path" fill="#3C3C3B"></path>
            <path d="M486.844298,380.838905 C486.428124,380.425754 486.20137,379.858867 486.217805,379.272672 L486.217805,317.377434 C486.188012,316.761543 486.414845,316.160855 486.844298,315.718386 C487.255842,315.308264 487.818193,315.085842 488.39893,315.103494 L492.761181,315.103494 C493.73374,315.036039 494.650577,315.56322 495.081528,316.437693 L526.557026,364.770507 L526.557026,317.377434 C526.52415,316.763242 526.746694,316.162792 527.171917,315.718386 C527.587029,315.306462 528.153669,315.084003 528.738151,315.103494 L533.28603,315.103494 C533.918421,315.041427 534.545366,315.265872 534.994682,315.715188 C535.443999,316.164504 535.668444,316.79145 535.606376,317.42384 L535.606376,379.226265 C535.616389,379.822878 535.396176,380.400417 534.991484,380.838905 C534.588566,381.273984 534.01806,381.514865 533.425251,381.500204 L528.877372,381.500204 C527.919218,381.520911 527.027434,381.012594 526.557026,380.177607 L495.23235,332.308862 L495.23235,379.295875 C495.242534,379.890195 494.997561,380.46039 494.55945,380.862109 C494.123883,381.26402 493.551034,381.484028 492.958411,381.477001 L488.39893,381.477001 C487.814754,381.488559 487.251903,381.257538 486.844298,380.838905 L486.844298,380.838905 Z" id="Path" fill="#3C3C3B"></path>
            <path d="M123.222826,433.035096 C123.012032,432.823166 122.898601,432.533287 122.90958,432.234576 L122.90958,400.561849 C122.895338,400.248822 123.008322,399.943345 123.222826,399.714923 C123.434756,399.504128 123.724636,399.390697 124.023346,399.401676 L143.8159,399.401676 C144.130528,399.376951 144.440208,399.491219 144.663369,399.71438 C144.88653,399.937542 145.000798,400.247221 144.976073,400.561849 L144.976073,402.499338 C144.987052,402.798049 144.873621,403.087928 144.662826,403.299858 C144.434404,403.514362 144.128927,403.627347 143.8159,403.613105 L127.573476,403.613105 L127.573476,414.924793 L142.806549,414.924793 C143.119576,414.910551 143.425054,415.023535 143.653476,415.23804 C143.872207,415.464565 143.989464,415.770271 143.978324,416.084966 L143.978324,418.022455 C143.986349,418.327626 143.858923,418.620706 143.630272,418.822975 C143.407587,419.031669 143.111637,419.144213 142.806549,419.136221 L127.573476,419.136221 L127.573476,432.234576 C127.581332,432.537321 127.4588,432.828863 127.237026,433.035096 C127.016196,433.248021 126.720026,433.36482 126.413303,433.359944 L123.988541,433.359944 C123.699328,433.362383 123.422059,433.244754 123.222826,433.035096 L123.222826,433.035096 Z" id="Path" fill="#3C3C3B"></path>
            <path d="M153.387329,430.51752 C151.066982,428.301589 149.906809,424.960291 149.721181,420.505226 C149.721181,419.53068 149.721181,418.184879 149.721181,416.375009 C149.721181,414.565139 149.721181,413.242542 149.721181,412.302802 C149.8488,407.94055 151.113389,404.610853 153.503346,402.336914 C159.15147,397.774351 167.218512,397.774351 172.866636,402.336914 C175.256593,404.65726 176.521181,407.94055 176.6488,412.302802 C176.6488,414.182282 176.741614,415.539685 176.741614,416.375009 C176.741614,417.210334 176.741614,418.556135 176.6488,420.505226 C176.525049,424.960291 175.303,428.297722 172.982653,430.51752 C170.662307,432.737318 167.406088,433.84335 163.213995,433.835615 C158.983231,433.827881 155.707675,432.721849 153.387329,430.51752 Z M169.316506,427.385053 C170.863404,425.838155 171.690994,423.463667 171.799277,420.261589 C171.857285,418.312498 171.892091,417.024706 171.892091,416.375009 C171.892091,415.725312 171.892091,414.36791 171.799277,412.500031 C171.675525,409.297953 170.8402,406.919598 169.293303,405.364966 C165.814718,402.255397 160.555264,402.255397 157.076679,405.364966 C155.529782,406.911864 154.694457,409.290219 154.570705,412.500031 C154.570705,413.428169 154.570705,414.727563 154.570705,416.375009 C154.570705,418.022455 154.570705,419.287044 154.570705,420.261589 C154.694457,423.463667 155.529782,425.838155 157.076679,427.385053 C160.564881,430.492635 165.828304,430.492635 169.316506,427.385053 L169.316506,427.385053 Z" id="Shape" fill="#3C3C3B"></path>
            <path d="M186.927935,430.471113 C184.653995,428.220377 183.517026,424.817203 183.517026,420.261589 L183.517026,400.538646 C183.502784,400.225619 183.615768,399.920142 183.830272,399.691719 C184.042202,399.480925 184.332081,399.367494 184.630792,399.378473 L187.101961,399.378473 C187.416588,399.353748 187.726268,399.468015 187.94943,399.691177 C188.172591,399.914338 188.286858,400.224018 188.262134,400.538646 L188.262134,420.3312 C188.262134,423.440464 188.993043,425.76081 190.454861,427.292239 C193.969665,430.411347 199.261096,430.411347 202.7759,427.292239 C204.226117,425.737607 204.957026,423.41726 204.957026,420.3312 L204.957026,400.538646 C204.942784,400.225619 205.055768,399.920142 205.270272,399.691719 C205.482202,399.480925 205.772081,399.367494 206.070792,399.378473 L208.588368,399.378473 C208.895113,399.367232 209.191563,399.490047 209.400489,399.714923 C209.609183,399.937608 209.721728,400.233558 209.713736,400.538646 L209.713736,420.261589 C209.713736,424.82107 208.553562,428.220377 206.233216,430.471113 C203.91287,432.721849 200.722394,433.835615 196.557372,433.835615 C192.39235,433.835615 189.213476,432.721849 186.927935,430.471113 Z" id="Path" fill="#3C3C3B"></path>
            <path d="M218.124991,433.035096 C217.914196,432.823166 217.800765,432.533287 217.811744,432.234576 L217.811744,400.561849 C217.797502,400.248822 217.910487,399.943345 218.124991,399.714923 C218.33692,399.504128 218.6268,399.390697 218.92551,399.401676 L221.164645,399.401676 C221.650412,399.376803 222.105196,399.640578 222.324818,400.074576 L238.428021,424.82107 L238.428021,400.561849 C238.416881,400.247154 238.534138,399.941448 238.75287,399.714923 C238.962,399.507106 239.247062,399.39392 239.541788,399.401676 L241.862134,399.401676 C242.174715,399.384742 242.479752,399.501526 242.701104,399.722879 C242.922457,399.944231 243.039241,400.249268 243.022307,400.561849 L243.022307,432.188169 C243.027183,432.494893 242.910383,432.791063 242.697458,433.011892 C242.49519,433.240543 242.20211,433.367969 241.896939,433.359944 L239.576593,433.359944 C239.095288,433.355661 238.652913,433.09466 238.41642,432.675442 L222.359623,408.172585 L222.359623,432.234576 C222.367479,432.537321 222.244948,432.828863 222.023173,433.035096 C221.802343,433.248021 221.506173,433.36482 221.19945,433.359944 L218.879104,433.359944 C218.593918,433.359189 218.321452,433.241819 218.124991,433.035096 L218.124991,433.035096 Z" id="Path" fill="#3C3C3B"></path>
            <path d="M251.839623,433.035096 C251.628828,432.823166 251.515397,432.533287 251.526376,432.234576 L251.526376,400.561849 C251.512134,400.248822 251.625119,399.943345 251.839623,399.714923 C252.051552,399.504128 252.341432,399.390697 252.640142,399.401676 L263.603779,399.401676 C268.491975,399.401676 272.018901,400.492239 274.184558,402.673364 C276.354082,404.85449 277.47945,408.149382 277.583865,412.546438 C277.583865,413.486178 277.583865,414.739165 277.583865,416.328602 C277.583865,417.91804 277.583865,419.19423 277.583865,420.157174 C277.591241,422.733849 277.070024,425.284653 276.052437,427.651892 C275.162409,429.553114 273.624071,431.074999 271.713389,431.944533 C269.226232,432.985137 266.541311,433.468264 263.847415,433.359944 L252.593736,433.359944 C252.30855,433.359189 252.036084,433.241819 251.839623,433.035096 L251.839623,433.035096 Z M263.603779,429.183321 C265.420294,429.263727 267.232763,428.951096 268.917372,428.266784 C270.205913,427.680984 271.228289,426.633773 271.783,425.331546 C272.45643,423.609276 272.795068,421.774333 272.780749,419.925139 C272.780749,417.976048 272.873562,416.769468 272.873562,416.282195 C272.873562,415.794923 272.873562,414.565139 272.780749,412.685659 C272.711138,409.483581 271.957026,407.151633 270.460402,405.72462 C268.963779,404.297607 266.631831,403.520291 263.336939,403.520291 L256.201874,403.520291 L256.201874,429.183321 L263.603779,429.183321 Z" id="Shape" fill="#3C3C3B"></path>
            <path d="M281.412437,433.069901 C281.225779,432.8913 281.120878,432.643734 281.122394,432.385399 C281.097009,432.208411 281.097009,432.028707 281.122394,431.851719 L293.153389,400.527044 C293.354097,399.848466 294.002641,399.403197 294.708021,399.459685 L298.002913,399.459685 C298.708293,399.403197 299.356837,399.848466 299.557545,400.527044 L311.542134,431.851719 L311.634948,432.385399 C311.628844,432.916584 311.203078,433.34748 310.672004,433.359944 L308.189233,433.359944 C307.890512,433.380631 307.595361,433.285018 307.36551,433.093105 C307.196147,432.939929 307.065024,432.749205 306.982653,432.536221 L304.314255,425.644793 L288.396679,425.644793 L285.728281,432.536221 C285.645016,432.754742 285.504818,432.947014 285.32222,433.093105 C285.098333,433.279378 284.812575,433.37463 284.521701,433.359944 L282.050532,433.359944 C281.80895,433.346856 281.581147,433.243309 281.412437,433.069901 Z M302.956852,421.468169 L296.401874,404.2512 L289.858497,421.468169 L302.956852,421.468169 Z" id="Shape" fill="#3C3C3B"></path>
            <path d="M321.020749,433.035096 C320.809954,432.823166 320.696523,432.533287 320.707502,432.234576 L320.707502,403.71752 L311.426117,403.71752 C311.127406,403.728499 310.837526,403.615068 310.625597,403.404273 C310.42253,403.187388 310.31041,402.90086 310.31235,402.603754 L310.31235,400.561849 C310.304358,400.256762 310.416903,399.960812 310.625597,399.738126 C310.82907,399.512433 311.122503,399.389105 311.426117,399.401676 L334.815207,399.401676 C335.128234,399.387434 335.433712,399.500419 335.662134,399.714923 C335.876638,399.943345 335.989623,400.248822 335.975381,400.561849 L335.975381,402.603754 C335.97888,402.905663 335.85706,403.195513 335.63893,403.404273 C335.416245,403.612968 335.120295,403.725512 334.815207,403.71752 L325.533822,403.71752 L325.533822,432.234576 C325.541679,432.537321 325.419147,432.828863 325.197372,433.035096 C324.976542,433.248021 324.680372,433.36482 324.373649,433.359944 L321.844471,433.359944 C321.535304,433.379208 321.233544,433.260204 321.020749,433.035096 L321.020749,433.035096 Z" id="Path" fill="#3C3C3B"></path>
            <path d="M341.695034,433.035096 C341.476263,432.827665 341.357825,432.5358 341.370186,432.234576 L341.370186,400.515442 C341.357825,400.214219 341.476263,399.922353 341.695034,399.714923 C341.906964,399.504128 342.196843,399.390697 342.495554,399.401676 L345.059536,399.401676 C345.375206,399.372793 345.687383,399.485714 345.911527,399.709858 C346.135672,399.934003 346.248592,400.246179 346.21971,400.561849 L346.21971,432.280983 C346.230689,432.579694 346.117257,432.869573 345.906463,433.081503 C345.699032,433.300274 345.407167,433.418712 345.105943,433.406351 L342.495554,433.406351 C342.186963,433.406973 341.893903,433.271061 341.695034,433.035096 L341.695034,433.035096 Z" id="Path" fill="#3C3C3B"></path>
            <path d="M357.020922,430.51752 C354.700575,428.301589 353.540402,424.960291 353.354775,420.505226 C353.354775,419.53068 353.354775,418.184879 353.354775,416.375009 C353.354775,414.565139 353.354775,413.242542 353.354775,412.302802 C353.482394,407.94055 354.746982,404.610853 357.136939,402.336914 C362.785063,397.774351 370.852105,397.774351 376.500229,402.336914 C378.890186,404.65726 380.154775,407.94055 380.282394,412.302802 C380.352004,414.182282 380.375207,415.539685 380.375207,416.375009 C380.375207,417.210334 380.375207,418.556135 380.282394,420.505226 C380.158642,424.960291 378.936593,428.297722 376.616246,430.51752 C374.2959,432.737318 371.043548,433.839483 366.85919,433.824014 C362.612956,433.824014 359.329666,432.733451 357.020922,430.51752 Z M372.961701,427.385053 C374.508598,425.838155 375.332321,423.463667 375.43287,420.261589 C375.50248,418.312498 375.525684,417.024706 375.525684,416.375009 C375.525684,415.725312 375.525684,414.36791 375.43287,412.500031 C375.301383,409.297953 374.469926,406.919598 372.938497,405.364966 C369.456106,402.253762 364.192664,402.253762 360.710272,405.364966 C359.167242,406.919598 358.389926,409.297953 358.204298,412.500031 C358.204298,413.428169 358.204298,414.727563 358.204298,416.375009 C358.204298,418.022455 358.204298,419.287044 358.204298,420.261589 C358.343519,423.463667 359.167242,425.842022 360.710272,427.385053 C364.202277,430.494278 369.469697,430.494278 372.961701,427.385053 Z" id="Shape" fill="#3C3C3B"></path>
            <path d="M387.742307,433.035096 C387.531512,432.823166 387.418081,432.533287 387.42906,432.234576 L387.42906,400.561849 C387.414818,400.248822 387.527803,399.943345 387.742307,399.714923 C387.954236,399.504128 388.244116,399.390697 388.542826,399.401676 L390.770359,399.401676 C391.255399,399.37979 391.708678,399.642692 391.930532,400.074576 L408.033736,424.82107 L408.033736,400.561849 C408.019494,400.248822 408.132478,399.943345 408.346982,399.714923 C408.563868,399.511855 408.850396,399.399736 409.147502,399.401676 L411.467848,399.401676 C411.782476,399.376951 412.092156,399.491219 412.315317,399.71438 C412.538478,399.937542 412.652746,400.247221 412.628021,400.561849 L412.628021,432.188169 C412.636013,432.493257 412.523469,432.789207 412.314775,433.011892 C412.112506,433.240543 411.819426,433.367969 411.514255,433.359944 L409.193909,433.359944 C408.712604,433.355661 408.270229,433.09466 408.033736,432.675442 L391.976939,408.172585 L391.976939,432.234576 C391.984795,432.537321 391.862264,432.828863 391.640489,433.035096 C391.419659,433.248021 391.123489,433.36482 390.816766,433.359944 L388.49642,433.359944 C388.211234,433.359189 387.938768,433.241819 387.742307,433.035096 L387.742307,433.035096 Z" id="Path" fill="#3C3C3B"></path>
        </g>
    </g>
</svg>